<svg width="17" height="14" viewBox="0 0 17 14" fill="none" xmlns="http://www.w3.org/2000/svg">
<path d="M9.88776 6.93532L15.6211 1.97994C15.8722 1.76244 16.0132 1.46743 16.0132 1.15982C16.0132 0.85222 15.8722 0.557214 15.6211 0.339705C15.37 0.122196 15.0295 0 14.6744 0C14.3194 0 13.9788 0.122196 13.7278 0.339705L8.00775 5.30663L2.28774 0.339705C2.03666 0.122196 1.69614 -2.29183e-09 1.34107 0C0.985998 2.29183e-09 0.645471 0.122196 0.394399 0.339705C0.143326 0.557214 0.00227548 0.85222 0.00227547 1.15982C0.00227547 1.46743 0.143326 1.76244 0.394399 1.97994L6.12775 6.93532L0.394399 11.8907C0.269427 11.9981 0.170235 12.1258 0.102543 12.2666C0.0348514 12.4073 0 12.5583 0 12.7108C0 12.8633 0.0348514 13.0143 0.102543 13.155C0.170235 13.2958 0.269427 13.4235 0.394399 13.5309C0.51835 13.6392 0.665818 13.7251 0.828297 13.7838C0.990777 13.8424 1.16505 13.8726 1.34107 13.8726C1.51708 13.8726 1.69136 13.8424 1.85384 13.7838C2.01632 13.7251 2.16379 13.6392 2.28774 13.5309L8.00775 8.56401L13.7278 13.5309C13.8517 13.6392 13.9992 13.7251 14.1617 13.7838C14.3241 13.8424 14.4984 13.8726 14.6744 13.8726C14.8505 13.8726 15.0247 13.8424 15.1872 13.7838C15.3497 13.7251 15.4972 13.6392 15.6211 13.5309C15.7461 13.4235 15.8453 13.2958 15.913 13.155C15.9807 13.0143 16.0155 12.8633 16.0155 12.7108C16.0155 12.5583 15.9807 12.4073 15.913 12.2666C15.8453 12.1258 15.7461 11.9981 15.6211 11.8907L9.88776 6.93532Z" fill="black"/>
</svg>
