<svg width="30" height="30" viewBox="0 0 30 30" fill="none" xmlns="http://www.w3.org/2000/svg">
<path d="M28.3332 21.56V25.56C28.3347 25.9313 28.2586 26.2989 28.1098 26.6391C27.9611 26.9793 27.7429 27.2848 27.4693 27.5358C27.1956 27.7868 26.8726 27.9779 26.5208 28.0969C26.1691 28.2159 25.7963 28.2601 25.4265 28.2266C21.3236 27.7808 17.3825 26.3788 13.9198 24.1333C10.6983 22.0862 7.96694 19.3549 5.91983 16.1333C3.66647 12.6549 2.26415 8.69463 1.8265 4.5733C1.79318 4.20459 1.837 3.83298 1.95516 3.48213C2.07333 3.13128 2.26326 2.80889 2.51285 2.53546C2.76244 2.26204 3.06624 2.04358 3.40488 1.894C3.74353 1.74441 4.10962 1.66698 4.47983 1.66663H8.47983C9.12691 1.66026 9.75422 1.8894 10.2448 2.31134C10.7355 2.73328 11.0559 3.31923 11.1465 3.95997C11.3153 5.24006 11.6284 6.49694 12.0798 7.70663C12.2592 8.18387 12.298 8.70252 12.1917 9.20114C12.0854 9.69976 11.8383 10.1574 11.4798 10.52L9.7865 12.2133C11.6846 15.5514 14.4484 18.3152 17.7865 20.2133L19.4798 18.52C19.8423 18.1615 20.3 17.9144 20.7987 17.8081C21.2973 17.7018 21.8159 17.7406 22.2932 17.92C23.5029 18.3714 24.7597 18.6845 26.0398 18.8533C26.6875 18.9447 27.279 19.2709 27.7019 19.77C28.1247 20.269 28.3494 20.9061 28.3332 21.56Z" stroke="#090909" stroke-width="2" stroke-linecap="round" stroke-linejoin="round"/>
</svg>
